<?xml version="1.0" encoding="utf-8"?>
<svg version="1.1" id="Layer_1" xmlns="http://www.w3.org/2000/svg" xmlns:xlink="http://www.w3.org/1999/xlink" x="0px" y="0px"
	 viewBox="0 0 512 512" style="enable-background:new 0 0 512 512;" xml:space="preserve">
<g>
	<path fill="#FFFFFF" d="M505.6,50.7c-0.1-4.1-2.3-7.8-6-9.7c-3.6-1.9-8-1.5-11.3,0.8l-42.9,30.8l-3.4,2.4C395.7,28.9,332.1,0,261.7,0
		C120.6,0,5.8,114.8,5.8,256s114.8,256,256,256c85.1,0,164.5-42.2,212.3-112.9c1.9-2.8,2.6-6.3,2-9.6s-2.6-6.3-5.4-8.2l-64-44.4
		c-6.3-4.2-14.8-2.6-19,3.7c-28.3,41.9-75.2,66.8-125.6,66.8c-83.5,0-151.5-67.9-151.5-151.4s68-151.4,151.5-151.4
		c35.2,0,67.6,12.3,93.3,32.5l-7.2,5.2l-43,30.8c-3.3,2.4-5,6.4-4.4,10.5c0.6,4,3.4,7.4,7.3,8.7l183.9,62.6c3.3,1.2,7,0.6,9.9-1.5
		c2.9-2.1,4.5-5.4,4.5-8.9L505.6,50.7z"/>
</g>
</svg>
